<svg width="24" height="24" viewBox="0 0 24 24" fill="none" xmlns="http://www.w3.org/2000/svg">
<rect width="24" height="24" fill="#535353"/>
<g id="Final Waterfall">
<rect width="1280" height="2078" transform="translate(-1142 -946)" fill="#F5F5F5"/>
<g id="Frame 42">
<g id="Frame 41">
<g id="Operator selection" filter="url(#filter0_d_345_13989)">
<rect x="-1102" y="-18" width="1200" height="1096" rx="20" fill="white"/>
<g id="Export">
<g id="SvgjsG1008">
<g id="Frame" clip-path="url(#clip0_345_13989)">
<g id="SvgjsSvg1035" clip-path="url(#clip1_345_13989)">
<g id="SvgjsG1037">
<g id="Frame_2">
<path id="Vector" d="M19 9H14C13.4696 9 12.9609 8.78929 12.5858 8.41421C12.2107 8.03914 12 7.53043 12 7V2L19 9Z" fill="#6563FF"/>
<path id="Vector_2" d="M14 9C13.4696 9 12.9609 8.78929 12.5858 8.41421C12.2107 8.03914 12 7.53043 12 7V2H6C5.20435 2 4.44129 2.31607 3.87868 2.87868C3.31607 3.44129 3 4.20435 3 5V19C3 19.7956 3.31607 20.5587 3.87868 21.1213C4.44129 21.6839 5.20435 22 6 22H16C16.7956 22 17.5587 21.6839 18.1213 21.1213C18.6839 20.5587 19 19.7956 19 19V9H14Z" fill="#B2B1FF"/>
<path id="Vector_3" d="M20.707 15.2935L17.707 12.2935C17.6144 12.1997 17.5041 12.1251 17.3825 12.0741C17.261 12.0231 17.1305 11.9966 16.9987 11.9962C16.8668 11.9957 16.7362 12.0214 16.6143 12.0717C16.4925 12.1219 16.3817 12.1958 16.2885 12.289C16.1953 12.3823 16.1214 12.493 16.0712 12.6149C16.0209 12.7368 15.9952 12.8674 15.9957 12.9992C15.9961 13.131 16.0226 13.2615 16.0736 13.3831C16.1246 13.5046 16.1992 13.6149 16.293 13.7075L17.586 15.0005H12C11.7348 15.0005 11.4804 15.1059 11.2929 15.2934C11.1054 15.481 11 15.7353 11 16.0005C11 16.2657 11.1054 16.5201 11.2929 16.7076C11.4804 16.8952 11.7348 17.0005 12 17.0005H17.5859L16.2929 18.2935C16.1991 18.3862 16.1246 18.4964 16.0736 18.618C16.0225 18.7396 15.996 18.87 15.9956 19.0018C15.9952 19.1337 16.0209 19.2643 16.0711 19.3862C16.1214 19.5081 16.1953 19.6188 16.2885 19.712C16.3817 19.8052 16.4925 19.8791 16.6144 19.9294C16.7362 19.9796 16.8669 20.0053 16.9987 20.0049C17.1305 20.0044 17.261 19.978 17.3825 19.9269C17.5041 19.8759 17.6144 19.8013 17.707 19.7075L20.707 16.7075C20.7999 16.6147 20.8736 16.5045 20.9238 16.3832C20.9741 16.2618 21 16.1318 21 16.0005C21 15.8692 20.9741 15.7391 20.9238 15.6178C20.8736 15.4965 20.7999 15.3863 20.707 15.2935Z" fill="#6563FF"/>
</g>
</g>
</g>
</g>
</g>
<rect x="-4" y="-4" width="32" height="32" rx="8" stroke="#3536B3" stroke-opacity="0.17"/>
</g>
</g>
</g>
</g>
</g>
<defs>
<filter id="filter0_d_345_13989" x="-1105" y="-20" width="1218" height="1114" filterUnits="userSpaceOnUse" color-interpolation-filters="sRGB">
<feFlood flood-opacity="0" result="BackgroundImageFix"/>
<feColorMatrix in="SourceAlpha" type="matrix" values="0 0 0 0 0 0 0 0 0 0 0 0 0 0 0 0 0 0 127 0" result="hardAlpha"/>
<feOffset dx="6" dy="7"/>
<feGaussianBlur stdDeviation="4.5"/>
<feComposite in2="hardAlpha" operator="out"/>
<feColorMatrix type="matrix" values="0 0 0 0 0.870833 0 0 0 0 0.871678 0 0 0 0 1 0 0 0 0.31 0"/>
<feBlend mode="normal" in2="BackgroundImageFix" result="effect1_dropShadow_345_13989"/>
<feBlend mode="normal" in="SourceGraphic" in2="effect1_dropShadow_345_13989" result="shape"/>
</filter>
<clipPath id="clip0_345_13989">
<rect width="24" height="24" fill="white"/>
</clipPath>
<clipPath id="clip1_345_13989">
<rect width="24" height="24" fill="white"/>
</clipPath>
</defs>
</svg>
