<svg width="180" height="36" viewBox="0 0 180 36" fill="none" xmlns="http://www.w3.org/2000/svg">
<path d="M9.02328 2.66221C8.47403 2.84935 7.82735 3.4286 7.54387 3.99002L7.3224 4.42668L7.29582 14.2739C7.2781 23.9784 7.2781 24.121 7.45528 24.4151C7.96909 25.2617 9.15616 25.2617 9.66997 24.4151C9.82942 24.1478 9.84714 23.9606 9.84714 22.0625C9.84714 20.0307 9.84714 20.0039 10.0509 19.8168C10.2901 19.594 10.6267 19.5673 10.8748 19.7455C11.0342 19.8703 11.0431 20.0396 11.0874 23.4259C11.1317 26.7677 11.1405 26.9905 11.3088 27.2757C11.7695 28.0688 12.806 28.1134 13.4261 27.3737L13.6564 27.0886V23.1497C13.6564 18.8633 13.6475 18.9167 14.1614 18.7207C14.4094 18.6316 14.8435 18.8098 14.9321 19.0415C14.9586 19.1217 14.9852 20.0307 14.9852 21.0644C14.9852 23.1675 15.0384 23.3903 15.5699 23.7289C15.942 23.9606 16.5621 23.9695 16.9253 23.7557C17.067 23.6755 17.2708 23.4527 17.3682 23.2744C17.5454 22.9447 17.5543 22.8289 17.5543 18.9702C17.5543 15.2541 17.5631 14.9957 17.7137 14.7996C17.9175 14.5501 18.3604 14.5323 18.6173 14.764C18.7856 14.9155 18.7945 15.0581 18.8122 23.3725C18.8388 31.7403 18.8388 31.8205 19.0248 32.0612C19.6183 32.8632 20.5839 32.9077 21.1332 32.1592C21.3192 31.9097 21.3192 31.8116 21.3635 24.9676C21.4078 18.3108 21.4167 18.0256 21.5761 17.8474C21.771 17.6246 22.2228 17.5978 22.4797 17.785C22.6215 17.8919 22.6569 18.0523 22.6923 18.9435L22.7366 19.9772L23.0733 20.3069C23.3833 20.6277 23.4365 20.6456 23.968 20.6456C24.4552 20.6456 24.5704 20.6099 24.7741 20.4228C25.2702 19.9594 25.2614 20.1376 25.2614 13.4005C25.2614 6.52088 25.2525 6.63673 25.8195 5.88816C26.0144 5.64755 26.351 5.38021 26.7673 5.1396C27.5026 4.73858 27.8304 4.34648 27.8304 3.87417C27.8304 3.44642 27.6001 2.99193 27.2634 2.75132L26.9888 2.55527L18.2187 2.53745C10.3344 2.51963 9.4042 2.53745 9.02328 2.66221ZM10.9456 9.30126C11.1494 9.58642 11.1228 9.9607 10.8925 10.1746C10.3167 10.7093 9.46621 9.84486 10.0243 9.28343C10.2724 9.03391 10.7685 9.04282 10.9456 9.30126ZM22.3911 9.44384C22.6126 9.58642 22.6923 9.94288 22.6923 10.7806C22.6923 11.538 22.6657 11.6984 22.5063 11.9034C22.2848 12.1797 21.9216 12.2064 21.6204 11.9658C21.4167 11.8054 21.4078 11.743 21.4078 10.7716C21.4078 9.88941 21.4344 9.72009 21.5761 9.55969C21.7444 9.37255 22.1962 9.31017 22.3911 9.44384ZM14.7992 13.6144C14.9675 13.8372 14.9852 13.9709 14.9852 15.4056C14.9852 16.9295 14.9852 16.9562 14.7637 17.1701C14.5246 17.4196 14.3917 17.4374 14.0639 17.2948C13.7007 17.1255 13.6387 16.8314 13.6741 15.2096C13.7007 13.7748 13.7096 13.7213 13.9133 13.552C14.2145 13.3114 14.5777 13.3382 14.7992 13.6144Z" fill="#F8F9FB"/>
<path d="M23.3569 23.506C22.9759 23.6932 22.7545 24.0407 22.719 24.513C22.595 25.8854 24.4642 26.4557 25.0843 25.2349C25.3855 24.6378 25.2615 24.0496 24.7388 23.6041C24.4022 23.3189 23.7998 23.2743 23.3569 23.506Z" fill="#F8F9FB"/>
<path d="M15.694 26.6785C15.1891 26.937 14.9587 27.3469 15.0119 27.9172C15.0739 28.6391 15.5523 29.0668 16.2964 29.0668C16.6507 29.0668 16.8013 29.0133 17.0317 28.8262C17.3417 28.5588 17.5543 28.1311 17.5543 27.7657C17.5543 27.3558 17.1557 26.7855 16.757 26.6251C16.2875 26.4379 16.1635 26.4468 15.694 26.6785Z" fill="#F8F9FB"/>
<path d="M10.2014 29.1827C9.70532 29.4322 9.77618 30.163 10.3166 30.3501C10.5115 30.4214 10.6089 30.4036 10.8038 30.2521C11.4239 29.7887 10.8924 28.8352 10.2014 29.1827Z" fill="#F8F9FB"/>
<path d="M54.7527 9.81409H58.022C58.3 9.81409 58.4974 9.87992 58.6145 10.0116C58.7461 10.1286 58.8119 10.3261 58.8119 10.604V19.1174C58.8119 19.5855 58.79 20.0244 58.7461 20.4339C58.7168 20.8289 58.6071 21.297 58.417 21.8382L57.3199 24.8223C57.2467 25.0417 57.137 25.2319 56.9908 25.3928C56.8591 25.5391 56.6763 25.6122 56.4422 25.6122H53.5239C53.2899 25.6122 53.0778 25.561 52.8876 25.4586C52.6975 25.3562 52.5731 25.188 52.5146 24.954L51.5053 21.3774C51.4614 21.2312 51.4029 21.1361 51.3298 21.0922C51.2713 21.0337 51.1981 21.0044 51.1103 21.0044H50.9129C50.8251 21.0044 50.7446 21.0337 50.6715 21.0922C50.613 21.1361 50.5618 21.2312 50.5179 21.3774L49.4867 24.954C49.4281 25.1734 49.3184 25.3416 49.1575 25.4586C48.9966 25.561 48.7991 25.6122 48.5651 25.6122H45.6688C45.4347 25.6122 45.2299 25.5391 45.0544 25.3928C44.8935 25.2465 44.7765 25.0564 44.7033 24.8223L43.6062 21.7943C43.4161 21.2531 43.2991 20.785 43.2552 20.3901C43.2259 19.9805 43.2113 19.5416 43.2113 19.0735V10.604C43.2113 10.3261 43.2698 10.1286 43.3868 10.0116C43.5185 9.87992 43.7233 9.81409 44.0012 9.81409H47.3802C47.6582 9.81409 47.8556 9.87992 47.9727 10.0116C48.1043 10.1286 48.1701 10.3261 48.1701 10.604V18.6786L49.4428 15.9139C49.5598 15.6652 49.7134 15.4897 49.9035 15.3873C50.0937 15.2849 50.3278 15.2337 50.6057 15.2337H51.5272C51.8052 15.2337 52.0392 15.2849 52.2294 15.3873C52.4195 15.4897 52.5731 15.6652 52.6902 15.9139L53.9628 18.6786V10.604C53.9628 10.3261 54.0213 10.1286 54.1383 10.0116C54.27 9.87992 54.4748 9.81409 54.7527 9.81409ZM67.3704 14.4219L66.3392 17.757H69.784L68.7528 14.4219C68.6943 14.2902 68.6284 14.1951 68.5553 14.1366C68.4968 14.0781 68.4237 14.0489 68.3359 14.0489H67.7873C67.6996 14.0489 67.6191 14.0781 67.546 14.1366C67.4875 14.1951 67.429 14.2902 67.3704 14.4219ZM66.1198 24.8223C66.1198 25.1002 66.0539 25.305 65.9223 25.4367C65.8053 25.5537 65.6078 25.6122 65.3299 25.6122H62.1044C61.8265 25.6122 61.6217 25.5537 61.49 25.4367C61.373 25.305 61.3145 25.1002 61.3145 24.8223V19.0297C61.3145 18.5908 61.3803 18.0862 61.512 17.5157C61.6583 16.9452 61.8777 16.2796 62.1702 15.519L64.0792 10.5382C64.1669 10.2895 64.2986 10.1066 64.4741 9.98963C64.6643 9.8726 64.9056 9.81409 65.1982 9.81409H71.1006C71.3785 9.81409 71.6052 9.8726 71.7808 9.98963C71.9709 10.1066 72.1099 10.2895 72.1976 10.5382L74.1066 15.519C74.3991 16.2796 74.6112 16.9452 74.7429 17.5157C74.8892 18.0862 74.9623 18.5908 74.9623 19.0297V24.8223C74.9623 25.1002 74.8965 25.305 74.7648 25.4367C74.6478 25.5537 74.4503 25.6122 74.1724 25.6122H70.8592C70.5666 25.6122 70.3472 25.5537 70.2009 25.4367C70.0693 25.305 70.0035 25.1002 70.0035 24.8223V21.7505H66.1198V24.8223ZM84.2531 25.6122H80.6986C80.4206 25.6122 80.2158 25.5537 80.0842 25.4367C79.9672 25.305 79.9087 25.1002 79.9087 24.8223V14.0489H76.6832C76.4053 14.0489 76.2005 13.9904 76.0688 13.8733C75.9518 13.7417 75.8933 13.5369 75.8933 13.259V10.604C75.8933 10.3261 75.9518 10.1286 76.0688 10.0116C76.2005 9.87992 76.4053 9.81409 76.6832 9.81409H88.2685C88.5464 9.81409 88.7439 9.87992 88.8609 10.0116C88.9926 10.1286 89.0584 10.3261 89.0584 10.604V13.259C89.0584 13.5369 88.9926 13.7417 88.8609 13.8733C88.7439 13.9904 88.5464 14.0489 88.2685 14.0489H85.043V24.8223C85.043 25.1002 84.9772 25.305 84.8456 25.4367C84.7285 25.5537 84.5311 25.6122 84.2531 25.6122ZM102.163 25.6122H91.9822C91.7042 25.6122 91.4994 25.5537 91.3678 25.4367C91.2508 25.305 91.1922 25.1002 91.1922 24.8223V10.604C91.1922 10.3261 91.2508 10.1286 91.3678 10.0116C91.4994 9.87992 91.7042 9.81409 91.9822 9.81409H102.163C102.441 9.81409 102.639 9.87992 102.756 10.0116C102.887 10.1286 102.953 10.3261 102.953 10.604V13.1712C102.953 13.4491 102.887 13.6539 102.756 13.7856C102.639 13.9026 102.441 13.9611 102.163 13.9611H96.1072V15.6506H100.386C100.664 15.6506 100.861 15.7164 100.978 15.8481C101.11 15.9651 101.176 16.1626 101.176 16.4405V18.7883C101.176 19.0662 101.11 19.271 100.978 19.4027C100.861 19.5197 100.664 19.5782 100.386 19.5782H96.1072V21.4652H102.163C102.441 21.4652 102.639 21.531 102.756 21.6627C102.887 21.7797 102.953 21.9772 102.953 22.2551V24.8223C102.953 25.1002 102.887 25.305 102.756 25.4367C102.639 25.5537 102.441 25.6122 102.163 25.6122ZM110.508 13.7636V16.5722H112.153C112.534 16.5722 112.79 16.4771 112.921 16.2869C113.053 16.0821 113.119 15.8335 113.119 15.5409V14.7949C113.119 14.5023 113.053 14.261 112.921 14.0708C112.79 13.866 112.534 13.7636 112.153 13.7636H110.508ZM109.718 25.6122H106.339C106.061 25.6122 105.856 25.5537 105.724 25.4367C105.607 25.305 105.549 25.1002 105.549 24.8223V10.604C105.549 10.3261 105.607 10.1286 105.724 10.0116C105.856 9.87992 106.061 9.81409 106.339 9.81409H113.645C115.284 9.81409 116.41 10.1578 117.024 10.8454C117.653 11.5182 117.968 12.3959 117.968 13.4784V14.4877C117.968 15.1021 117.873 15.6287 117.683 16.0675C117.507 16.4917 117.193 16.7989 116.739 16.9891C117.529 17.0768 118.165 17.3987 118.648 17.9545C119.145 18.5104 119.394 19.2491 119.394 20.1706V24.8223C119.394 25.1002 119.328 25.305 119.197 25.4367C119.08 25.5537 118.882 25.6122 118.604 25.6122H115.203C114.925 25.6122 114.72 25.5537 114.589 25.4367C114.472 25.305 114.413 25.1002 114.413 24.8223V21.4652C114.413 21.1434 114.347 20.9093 114.216 20.7631C114.099 20.6022 113.887 20.5217 113.579 20.5217H110.508V24.8223C110.508 25.1002 110.442 25.305 110.31 25.4367C110.193 25.5537 109.996 25.6122 109.718 25.6122ZM126.046 25.6122H122.645C122.367 25.6122 122.162 25.5537 122.031 25.4367C121.914 25.305 121.855 25.1002 121.855 24.8223V10.604C121.855 10.3261 121.914 10.1286 122.031 10.0116C122.162 9.87992 122.367 9.81409 122.645 9.81409H132.431C132.709 9.81409 132.906 9.87992 133.023 10.0116C133.155 10.1286 133.221 10.3261 133.221 10.604V13.2151C133.221 13.493 133.155 13.6978 133.023 13.8294C132.906 13.9465 132.709 14.005 132.431 14.005H126.836V16.2869H130.654C130.932 16.2869 131.129 16.3528 131.246 16.4844C131.378 16.6014 131.444 16.7989 131.444 17.0768V19.7099C131.444 19.9878 131.378 20.1926 131.246 20.3242C131.129 20.4413 130.932 20.4998 130.654 20.4998H126.836V24.8223C126.836 25.1002 126.77 25.305 126.638 25.4367C126.521 25.5537 126.324 25.6122 126.046 25.6122ZM140.374 14.4219L139.343 17.757H142.788L141.757 14.4219C141.698 14.2902 141.632 14.1951 141.559 14.1366C141.501 14.0781 141.427 14.0489 141.34 14.0489H140.791C140.703 14.0489 140.623 14.0781 140.55 14.1366C140.491 14.1951 140.433 14.2902 140.374 14.4219ZM139.123 24.8223C139.123 25.1002 139.058 25.305 138.926 25.4367C138.809 25.5537 138.612 25.6122 138.334 25.6122H135.108C134.83 25.6122 134.625 25.5537 134.494 25.4367C134.377 25.305 134.318 25.1002 134.318 24.8223V19.0297C134.318 18.5908 134.384 18.0862 134.516 17.5157C134.662 16.9452 134.881 16.2796 135.174 15.519L137.083 10.5382C137.171 10.2895 137.302 10.1066 137.478 9.98963C137.668 9.8726 137.909 9.81409 138.202 9.81409H144.104C144.382 9.81409 144.609 9.8726 144.784 9.98963C144.975 10.1066 145.114 10.2895 145.201 10.5382L147.11 15.519C147.403 16.2796 147.615 16.9452 147.747 17.5157C147.893 18.0862 147.966 18.5908 147.966 19.0297V24.8223C147.966 25.1002 147.9 25.305 147.769 25.4367C147.652 25.5537 147.454 25.6122 147.176 25.6122H143.863C143.57 25.6122 143.351 25.5537 143.205 25.4367C143.073 25.305 143.007 25.1002 143.007 24.8223V21.7505H139.123V24.8223ZM162.633 25.6122H151.465C151.187 25.6122 150.982 25.5537 150.851 25.4367C150.734 25.305 150.675 25.1002 150.675 24.8223V10.604C150.675 10.3261 150.734 10.1286 150.851 10.0116C150.982 9.87992 151.187 9.81409 151.465 9.81409H154.866C155.144 9.81409 155.341 9.87992 155.459 10.0116C155.59 10.1286 155.656 10.3261 155.656 10.604V21.4652H158.662V17.9106C158.662 17.6327 158.721 17.4352 158.838 17.3182C158.969 17.1865 159.174 17.1207 159.452 17.1207H162.633C162.911 17.1207 163.109 17.1865 163.226 17.3182C163.358 17.4352 163.423 17.6327 163.423 17.9106V24.8223C163.423 25.1002 163.358 25.305 163.226 25.4367C163.109 25.5537 162.911 25.6122 162.633 25.6122ZM177.89 25.6122H166.722C166.444 25.6122 166.239 25.5537 166.107 25.4367C165.99 25.305 165.932 25.1002 165.932 24.8223V10.604C165.932 10.3261 165.99 10.1286 166.107 10.0116C166.239 9.87992 166.444 9.81409 166.722 9.81409H170.123C170.4 9.81409 170.598 9.87992 170.715 10.0116C170.847 10.1286 170.912 10.3261 170.912 10.604V21.4652H173.918V17.9106C173.918 17.6327 173.977 17.4352 174.094 17.3182C174.226 17.1865 174.43 17.1207 174.708 17.1207H177.89C178.168 17.1207 178.365 17.1865 178.482 17.3182C178.614 17.4352 178.68 17.6327 178.68 17.9106V24.8223C178.68 25.1002 178.614 25.305 178.482 25.4367C178.365 25.5537 178.168 25.6122 177.89 25.6122Z" fill="#F8F9FB"/>
</svg>
