<svg width="24" height="24" viewBox="0 0 24 24" fill="none" xmlns="http://www.w3.org/2000/svg">
<path d="M4.5 13.125H1.5V20.625H4.5V13.125Z" fill="#6563FF"/>
<path d="M9 7.5H6V20.625H9V7.5Z" fill="#B2B1FF"/>
<path d="M13.5 3.375H10.5V20.625H13.5V3.375Z" fill="#6563FF"/>
<path d="M18 11.25H15V20.625H18V11.25Z" fill="#6D6BFF"/>
<path d="M22.5 6.375H19.5V20.625H22.5V6.375Z" fill="#6A69CD"/>
<path d="M22.8622 19.875H1.13775C0.923602 19.875 0.75 20.0373 0.75 20.2376V20.2624C0.75 20.4626 0.923602 20.625 1.13775 20.625H22.8622C23.0764 20.625 23.25 20.4626 23.25 20.2624V20.2376C23.25 20.0373 23.0764 19.875 22.8622 19.875Z" fill="#34485C"/>
</svg>
